<svg xmlns="http://www.w3.org/2000/svg" viewBox="0 0 512 512">
  <defs>
    <linearGradient id="bg" x1="0%" y1="0%" x2="100%" y2="100%">
      <stop offset="0%" style="stop-color:#0d9488"/>
      <stop offset="100%" style="stop-color:#0f766e"/>
    </linearGradient>
    <linearGradient id="w" x1="0%" y1="0%" x2="0%" y2="100%">
      <stop offset="0%" style="stop-color:#ffffff;stop-opacity:.95"/>
      <stop offset="100%" style="stop-color:#e8f4f4;stop-opacity:.95"/>
    </linearGradient>
    <linearGradient id="wc" x1="0%" y1="0%" x2="0%" y2="100%">
      <stop offset="0%" style="stop-color:#0d9488;stop-opacity:.25"/>
      <stop offset="100%" style="stop-color:#0d9488;stop-opacity:.08"/>
    </linearGradient>
  </defs>
  <rect width="512" height="512" rx="112" fill="url(#bg)"/>
  <!-- Bottle body -->
  <path d="M196 160c0-8 8-16 16-16h88c8 0 16 8 16 16v16c0 8-8 16-16 16h-8v40l40 144c0 8-8 16-16 16H196c-8 0-16-8-16-16l40-144v-40h-8c-8 0-16-8-16-16v-16z" fill="url(#w)"/>
  <!-- Water level -->
  <path d="M204 296l-16 56c0 8 8 16 16 16h104c8 0 16-8 16-16l-16-56H204z" fill="url(#wc)"/>
  <!-- Cap -->
  <rect x="228" y="132" width="56" height="28" rx="6" fill="#fff" opacity=".6"/>
  <rect x="236" y="128" width="40" height="8" rx="4" fill="#fff" opacity=".5"/>
  <!-- Highlight -->
  <path d="M220 192l-28 104c0 4 4 8 8 8h20l24-88v-24h-24z" fill="#fff" opacity=".15"/>
</svg>
